<svg width="30" height="30" viewBox="0 0 30 30" fill="none" xmlns="http://www.w3.org/2000/svg">
<g clip-path="url(#clip0_2_179)">
<path fill-rule="evenodd" clip-rule="evenodd" d="M15 30C23.2843 30 30 23.2843 30 15C30 6.71573 23.2843 0 15 0C6.71573 0 0 6.71573 0 15C0 23.2843 6.71573 30 15 30Z" fill="white"/>
<path fill-rule="evenodd" clip-rule="evenodd" d="M7.5 10.901V19.3948C7.5 19.8569 7.83823 20.2315 8.30419 20.2315H21.5603C22.0258 20.2315 22.3645 19.8526 22.3645 19.3948V10.901C22.3645 10.3939 22.0616 10 21.5603 10H8.30419C7.78355 10 7.5 10.4035 7.5 10.901ZM8.72226 11.6408C8.72226 11.4361 8.84613 11.319 9.04403 11.319C9.16645 11.319 13.9834 14.3713 14.2752 14.5503L15.029 15.0192C15.2681 14.859 15.5081 14.7221 15.7558 14.5561C16.2615 14.2329 20.7605 11.319 20.8844 11.319C21.0827 11.319 21.2061 11.4361 21.2061 11.6408C21.2061 11.8576 20.7885 12.0729 20.5166 12.2389C18.8081 13.2802 17.1 14.4153 15.4084 15.4953C15.3097 15.5621 15.1185 15.7048 14.9753 15.6831C14.8156 15.6584 9.91403 12.5094 9.02226 11.9848C8.88823 11.906 8.72226 11.8339 8.72226 11.6408Z" fill="black"/>
</g>
<defs>
<clipPath id="clip0_2_179">
<rect width="30" height="30" fill="white"/>
</clipPath>
</defs>
</svg>
