<svg width="31" height="30" viewBox="0 0 31 30" fill="none" xmlns="http://www.w3.org/2000/svg">
<path d="M15.5 3.36279C9.08329 3.36279 3.86282 8.58326 3.86282 15C3.86282 21.4167 9.08329 26.6372 15.5 26.6372C21.9167 26.6372 27.1372 21.4167 27.1372 15C27.1372 8.58326 21.9167 3.36279 15.5 3.36279ZM18.3941 15.4097H16.5008C16.5008 18.4345 16.5008 22.1587 16.5008 22.1587H13.6953C13.6953 22.1587 13.6953 18.4706 13.6953 15.4097H12.3617V13.0247H13.6953V11.482C13.6953 10.3772 14.2203 8.65076 16.5266 8.65076L18.6045 8.65873V10.9739C18.6045 10.9739 17.3413 10.9739 17.0956 10.9739C16.85 10.9739 16.5013 11.0967 16.5013 11.6236V13.0251H18.6388L18.3941 15.4097Z" fill="white"/>
</svg>
