<svg width="24" height="24" viewBox="0 0 24 24" fill="none" xmlns="http://www.w3.org/2000/svg">
<path d="M12.7005 11.4947V11.4634C12.6937 11.474 12.6865 11.4845 12.6793 11.4947H12.7005Z" fill="white"/>
<path d="M20.4865 2.39337H3.39867C2.58079 2.39337 1.91748 3.04086 1.91748 3.83886V21.1267C1.91748 21.9243 2.58079 22.5718 3.39867 22.5718H20.4865C21.3056 22.5718 21.9689 21.9239 21.9689 21.1267V3.83886C21.9689 3.04045 21.3052 2.39337 20.4865 2.39337ZM7.99518 19.2852H4.96668V10.1738H7.99518V19.2852ZM6.48113 8.9291H6.46084C5.44499 8.9291 4.78776 8.22928 4.78776 7.35501C4.78776 6.46126 5.46527 5.78092 6.50101 5.78092C7.53715 5.78092 8.1745 6.46126 8.19478 7.35501C8.19478 8.22928 7.53675 8.9291 6.48113 8.9291ZM18.9161 19.2852H15.8875V14.4096C15.8875 13.1852 15.4494 12.3495 14.3536 12.3495C13.5171 12.3495 13.0189 12.913 12.7994 13.4575C12.7195 13.6518 12.7 13.9236 12.7 14.1962V19.2848H9.67151C9.67151 19.2848 9.71126 11.0273 9.67151 10.1734H12.7V11.4631C13.1025 10.8424 13.8222 9.95834 15.4299 9.95834C17.4223 9.95834 18.9165 11.261 18.9165 14.0599L18.9161 19.2852Z" fill="white"/>
</svg>
