<svg width="194" height="40" viewBox="0 0 194 40" fill="none" xmlns="http://www.w3.org/2000/svg">
<g clip-path="url(#clip0_2_117)">
<path d="M0.5 17.125V33.7266C0.5 34.8398 1.40781 35.7773 2.57031 35.8359C6.38437 36.0313 14.5781 36.8203 19.25 39.9922V19.1562C14.6719 16.0547 6.74922 15.2187 2.83125 15C1.56172 14.9297 0.5 15.9062 0.5 17.125ZM38.1719 15C34.2586 15.2225 26.3516 16.0523 21.8359 19.1477C21.7578 19.1562 21.75 19.1641 21.75 19.1797V40C26.4406 36.8445 34.6172 36.0344 38.4297 35.8375C39.5937 35.7734 40.5 34.8359 40.5 33.7266V17.125C40.5 15.9062 39.4375 14.9297 38.1719 15ZM28 7.5C28 3.35938 24.6406 0 20.5 0C16.3594 0 13 3.35938 13 7.5C13 11.6406 16.3594 15 20.5 15C24.6406 15 28 11.6406 28 7.5Z" fill="#27BC1A"/>
</g>
<path d="M64.2672 19.98C65.1739 20.0867 65.8205 20.3933 66.2072 20.9C66.5939 21.3933 66.7872 21.9933 66.7872 22.7C66.7872 23.14 66.7205 23.56 66.5872 23.96C66.4539 24.3467 66.2939 24.68 66.1072 24.96C65.9205 25.2267 65.7605 25.4 65.6272 25.48C65.0939 25.8267 63.4672 26 60.7472 26H56.8672V14.6H61.5672C62.6339 14.6 63.4939 14.66 64.1472 14.78C64.8139 14.8867 65.3539 15.14 65.7672 15.54C66.1805 15.9267 66.3872 16.52 66.3872 17.32C66.3872 18.0133 66.2139 18.5733 65.8672 19C65.5339 19.4267 65.0005 19.72 64.2672 19.88V19.98ZM62.6672 17.02C62.5339 16.8867 62.3739 16.8067 62.1872 16.78C62.0139 16.74 61.7339 16.72 61.3472 16.72C60.9605 16.72 60.6672 16.7267 60.4672 16.74V19.18H60.6672C60.7339 19.18 61.0139 19.18 61.5072 19.18C62.0005 19.18 62.3272 19.1467 62.4872 19.08C62.6072 19.0267 62.7139 18.8867 62.8072 18.66C62.9139 18.4333 62.9672 18.1867 62.9672 17.92C62.9672 17.52 62.8672 17.22 62.6672 17.02ZM63.0072 23.7C63.1005 23.62 63.1739 23.4733 63.2272 23.26C63.2939 23.0333 63.3272 22.8067 63.3272 22.58C63.3272 22.3 63.2872 22.04 63.2072 21.8C63.1405 21.5467 63.0472 21.3667 62.9272 21.26C62.8072 21.14 62.6339 21.06 62.4072 21.02C62.1939 20.98 61.8272 20.96 61.3072 20.96C60.9739 20.96 60.6939 20.9667 60.4672 20.98V23.88C61.0939 23.8933 61.6539 23.8867 62.1472 23.86C62.6405 23.82 62.9272 23.7667 63.0072 23.7ZM73.853 26.26C71.8663 26.26 70.373 25.7933 69.373 24.86C68.3863 23.9133 67.893 22.4 67.893 20.32C67.893 18.28 68.4396 16.7933 69.533 15.86C70.6263 14.9267 72.073 14.46 73.873 14.46C77.6596 14.46 79.553 16.3467 79.553 20.12C79.553 22.0267 79.0863 23.5267 78.153 24.62C77.233 25.7133 75.7996 26.26 73.853 26.26ZM73.773 23.9C74.1463 23.9 74.4596 23.84 74.713 23.72C74.9663 23.5867 75.1663 23.36 75.313 23.04C75.593 22.4933 75.733 21.6 75.733 20.36C75.733 19.1467 75.593 18.2667 75.313 17.72C75.033 17.16 74.5196 16.8667 73.773 16.84C73.493 16.84 73.1996 16.8733 72.893 16.94C72.5996 16.9933 72.413 17.0733 72.333 17.18C72.173 17.3667 72.0463 17.7667 71.953 18.38C71.873 18.98 71.833 19.64 71.833 20.36C71.833 21.48 71.9396 22.3 72.153 22.82C72.2996 23.2067 72.5063 23.4867 72.773 23.66C73.0396 23.82 73.373 23.9 73.773 23.9ZM86.7045 26.26C84.7179 26.26 83.2245 25.7933 82.2245 24.86C81.2379 23.9133 80.7445 22.4 80.7445 20.32C80.7445 18.28 81.2912 16.7933 82.3845 15.86C83.4779 14.9267 84.9245 14.46 86.7245 14.46C90.5112 14.46 92.4045 16.3467 92.4045 20.12C92.4045 22.0267 91.9379 23.5267 91.0045 24.62C90.0845 25.7133 88.6512 26.26 86.7045 26.26ZM86.6245 23.9C86.9979 23.9 87.3112 23.84 87.5645 23.72C87.8179 23.5867 88.0179 23.36 88.1645 23.04C88.4445 22.4933 88.5845 21.6 88.5845 20.36C88.5845 19.1467 88.4445 18.2667 88.1645 17.72C87.8845 17.16 87.3712 16.8667 86.6245 16.84C86.3445 16.84 86.0512 16.8733 85.7445 16.94C85.4512 16.9933 85.2645 17.0733 85.1845 17.18C85.0245 17.3667 84.8979 17.7667 84.8045 18.38C84.7245 18.98 84.6845 19.64 84.6845 20.36C84.6845 21.48 84.7912 22.3 85.0045 22.82C85.1512 23.2067 85.3579 23.4867 85.6245 23.66C85.8912 23.82 86.2245 23.9 86.6245 23.9ZM104.636 26H100.696L98.4761 21.74C98.4361 21.6733 98.3294 21.4867 98.1561 21.18C97.9961 20.8733 97.8161 20.58 97.6161 20.3V26H94.0161V14.6H97.6161V19.78C97.8428 19.5267 98.0361 19.2533 98.1961 18.96C98.3694 18.6533 98.4694 18.4733 98.4961 18.42L100.636 14.6H104.436L102.156 18.42C102.116 18.4733 102.029 18.6133 101.896 18.84C101.763 19.0667 101.616 19.28 101.456 19.48C101.309 19.6667 101.149 19.84 100.976 20C101.216 20.2267 101.409 20.4533 101.556 20.68C101.716 20.8933 101.896 21.18 102.096 21.54L104.636 26ZM117.467 25.62C116.974 25.8333 116.401 25.9867 115.747 26.08C115.094 26.1733 114.487 26.22 113.927 26.22C112.114 26.22 110.694 25.7467 109.667 24.8C108.641 23.8533 108.127 22.4 108.127 20.44C108.127 18.44 108.667 16.9467 109.747 15.96C110.827 14.96 112.347 14.46 114.307 14.46C115.241 14.46 116.214 14.5867 117.227 14.84C117.227 15.1067 117.201 15.5067 117.147 16.04C117.094 16.56 117.041 16.9267 116.987 17.14H115.727C114.807 17.14 114.081 17.16 113.547 17.2C113.027 17.2267 112.714 17.2867 112.607 17.38C112.407 17.5667 112.254 17.9467 112.147 18.52C112.041 19.08 111.987 19.62 111.987 20.14C111.987 21.0467 112.101 21.7467 112.327 22.24C112.554 22.72 112.841 23.04 113.187 23.2C113.521 23.36 114.074 23.44 114.847 23.44C115.461 23.44 116.261 23.3867 117.247 23.28L117.467 25.62ZM124.341 26.26C122.355 26.26 120.861 25.7933 119.861 24.86C118.875 23.9133 118.381 22.4 118.381 20.32C118.381 18.28 118.928 16.7933 120.021 15.86C121.115 14.9267 122.561 14.46 124.361 14.46C128.148 14.46 130.041 16.3467 130.041 20.12C130.041 22.0267 129.575 23.5267 128.641 24.62C127.721 25.7133 126.288 26.26 124.341 26.26ZM124.261 23.9C124.635 23.9 124.948 23.84 125.201 23.72C125.455 23.5867 125.655 23.36 125.801 23.04C126.081 22.4933 126.221 21.6 126.221 20.36C126.221 19.1467 126.081 18.2667 125.801 17.72C125.521 17.16 125.008 16.8667 124.261 16.84C123.981 16.84 123.688 16.8733 123.381 16.94C123.088 16.9933 122.901 17.0733 122.821 17.18C122.661 17.3667 122.535 17.7667 122.441 18.38C122.361 18.98 122.321 19.64 122.321 20.36C122.321 21.48 122.428 22.3 122.641 22.82C122.788 23.2067 122.995 23.4867 123.261 23.66C123.528 23.82 123.861 23.9 124.261 23.9ZM146.333 26H142.973L142.713 19.72C142.673 18.48 142.626 17.54 142.573 16.9H142.513C142.353 17.4067 142.166 18.1933 141.953 19.26L141.853 19.76L140.473 26H137.113L135.953 20.38L135.753 19.38C135.473 18.14 135.279 17.3133 135.173 16.9H135.113C135.059 17.5667 135.013 18.6533 134.973 20.16C134.959 20.2533 134.953 20.4 134.953 20.6L134.773 26H131.393L131.873 14.6H137.593L138.573 19.52L138.813 20.84C138.919 20.4267 139.019 19.9667 139.113 19.46L140.033 14.6H145.873L146.333 26ZM152.698 14.54C153.778 14.54 154.691 14.64 155.438 14.84C156.184 15.04 156.778 15.4267 157.218 16C157.671 16.56 157.898 17.3667 157.898 18.42C157.898 18.8867 157.824 19.3667 157.678 19.86C157.544 20.34 157.371 20.76 157.158 21.12C156.958 21.48 156.778 21.7133 156.618 21.82C156.431 21.9533 156.018 22.06 155.378 22.14C154.738 22.2067 153.984 22.24 153.118 22.24C152.811 22.24 152.338 22.2267 151.698 22.2V26H148.098V14.6C149.498 14.56 151.031 14.54 152.698 14.54ZM154.198 19.68C154.331 19.5067 154.398 19.16 154.398 18.64C154.398 17.96 154.251 17.48 153.958 17.2C153.678 16.92 153.184 16.78 152.478 16.78C152.238 16.78 151.978 16.8 151.698 16.84V19.88C151.831 19.8933 152.091 19.9 152.478 19.9C153.504 19.9 154.078 19.8267 154.198 19.68ZM165.518 23.5H162.198L161.598 26H157.918L161.598 14.6H166.298L169.818 26H166.118L165.518 23.5ZM163.838 17.06L162.658 21.28H165.038L163.918 17.06H163.838ZM174.153 21.4V26H170.813V14.6H174.193L177.213 19.2C177.666 19.88 178.013 20.4533 178.253 20.92H178.313V19V14.6H181.633V26H178.233L175.133 21.2L174.233 19.84H174.173L174.153 21.4ZM189.476 22.36V26H185.876V22.4L182.036 14.6H185.696L187.216 18.3C187.376 18.6733 187.522 19.0667 187.656 19.48H187.696C187.842 19.0267 187.989 18.62 188.136 18.26L189.636 14.6H193.276L189.476 22.36Z" fill="white"/>
<defs>
<clipPath id="clip0_2_117">
<rect width="40" height="40" fill="white" transform="translate(0.5)"/>
</clipPath>
</defs>
</svg>
