<svg width="23" height="22" viewBox="0 0 23 22" fill="none" xmlns="http://www.w3.org/2000/svg">
<path d="M11.6411 9.83542L7.91462 4.62109H5.92703L10.5433 11.0798L11.1243 11.8923L15.0756 17.4254H17.0632L12.2198 10.6479L11.6411 9.83542Z" fill="white"/>
<path d="M19.8965 0.916687H3.10352C2.17186 0.916687 1.41666 1.67189 1.41666 2.60355V19.3965C1.41666 20.3282 2.17186 21.0834 3.10352 21.0834H19.8965C20.8281 21.0834 21.5833 20.3282 21.5833 19.3965V2.60355C21.5833 1.67189 20.8281 0.916687 19.8965 0.916687ZM14.4657 18.3334L10.4667 12.6381L5.46047 18.3334H4.16666L9.89297 11.8207L4.16666 3.66669H8.53425L12.3202 9.05848L17.0638 3.66669H18.3575L12.897 9.87769L18.8333 18.3334H14.4657Z" fill="white"/>
</svg>
