<svg width="27" height="26" viewBox="0 0 27 26" fill="none" xmlns="http://www.w3.org/2000/svg">
<path d="M17.9414 12.5003C16.4858 12.5003 16.2835 13.9532 16.2835 13.9532H19.3782C19.3782 13.9532 19.398 12.5003 17.9414 12.5003Z" fill="white"/>
<path d="M10.9201 13.9532H8.17667V16.4719H10.6055C10.6467 16.4719 10.7087 16.4728 10.7811 16.4719C11.1719 16.4627 11.9125 16.349 11.9125 15.2474C11.9125 13.9399 10.9201 13.9532 10.9201 13.9532Z" fill="white"/>
<path d="M13.5007 2.33936C7.26358 2.33936 2.2074 7.39462 2.2074 13.6317C2.2074 19.8688 7.26358 24.925 13.5007 24.925C19.7369 24.925 24.793 19.8688 24.793 13.6317C24.793 7.39508 19.7364 2.33936 13.5007 2.33936ZM15.8777 9.27813H19.7653V10.4384H15.8777V9.27813ZM13.9125 15.3648C13.9125 18.2408 10.9201 18.1458 10.9201 18.1458H8.17667H8.09641H6.01662V8.72321H8.09641H8.17667H10.9201C12.4096 8.72321 13.5855 9.54596 13.5855 11.2318C13.5855 12.9177 12.1478 13.025 12.1478 13.025C14.0432 13.025 13.9125 15.3648 13.9125 15.3648ZM21.1852 15.2107H16.3023C16.3023 16.9608 17.9602 16.8507 17.9602 16.8507C19.5259 16.8507 19.4713 15.8367 19.4713 15.8367H21.1301C21.1301 18.5274 17.9047 18.343 17.9047 18.343C14.0359 18.343 14.2849 14.7406 14.2849 14.7406C14.2849 14.7406 14.2812 11.1208 17.9047 11.1208C21.719 11.1208 21.1852 15.2107 21.1852 15.2107Z" fill="white"/>
<path d="M11.5864 11.3781C11.5864 10.3981 10.9201 10.3981 10.9201 10.3981H10.5669H8.17667V12.5003H10.7499C11.1939 12.5003 11.5864 12.3577 11.5864 11.3781Z" fill="white"/>
</svg>
