<svg width="28" height="28" viewBox="0 0 28 28" fill="none" xmlns="http://www.w3.org/2000/svg">
<path d="M13.8809 16.881C15.0381 16.881 15.9762 15.9429 15.9762 14.7857C15.9762 13.6286 15.0381 12.6905 13.8809 12.6905C12.7238 12.6905 11.7857 13.6286 11.7857 14.7857C11.7857 15.9429 12.7238 16.881 13.8809 16.881Z" fill="white"/>
<path d="M16.5 9.64288H11.2619C10.5 9.64288 9.83334 9.88098 9.40477 10.3095C8.97619 10.7381 8.7381 11.4048 8.7381 12.1667V17.4048C8.7381 18.1667 8.97619 18.8334 9.45238 19.3095C9.92857 19.7381 10.5476 19.9762 11.3095 19.9762H16.5C17.2619 19.9762 17.9286 19.7381 18.3571 19.3095C18.8333 18.881 19.0714 18.2143 19.0714 17.4524V12.2143C19.0714 11.4524 18.8333 10.8334 18.4048 10.3572C17.9286 9.88098 17.3095 9.64288 16.5 9.64288ZM13.881 18.0238C12.0714 18.0238 10.6429 16.5476 10.6429 14.7857C10.6429 12.9762 12.1191 11.5476 13.881 11.5476C15.6429 11.5476 17.1667 12.9762 17.1667 14.7857C17.1667 16.5953 15.6905 18.0238 13.881 18.0238ZM17.2619 12.1667C16.8333 12.1667 16.5 11.8334 16.5 11.4048C16.5 10.9762 16.8333 10.6429 17.2619 10.6429C17.6905 10.6429 18.0238 10.9762 18.0238 11.4048C18.0238 11.8334 17.6905 12.1667 17.2619 12.1667Z" fill="white"/>
<path d="M13.9762 2.9762C7.5 2.9762 2.2619 8.21429 2.2619 14.6905C2.2619 21.1667 7.5 26.4048 13.9762 26.4048C20.4524 26.4048 25.6905 21.1667 25.6905 14.6905C25.7381 8.21429 20.4524 2.9762 13.9762 2.9762ZM20.2143 17.4524C20.2143 18.5476 19.8333 19.5 19.1667 20.1667C18.5 20.8333 17.5476 21.1667 16.5 21.1667H11.3095C10.2619 21.1667 9.30952 20.8333 8.64285 20.1667C7.92857 19.5 7.59523 18.5476 7.59523 17.4524V12.2143C7.59523 10.0238 9.07143 8.50001 11.3095 8.50001H16.5476C17.6429 8.50001 18.5476 8.88096 19.2143 9.54763C19.8809 10.2143 20.2143 11.1191 20.2143 12.2143V17.4524Z" fill="white"/>
</svg>
